<svg width="391" height="250" viewBox="0 0 391 250" fill="none" xmlns="http://www.w3.org/2000/svg">
<path d="M39.9882 66.5992C42.623 66.5992 44.9196 66.2787 46.8779 65.6378C48.8362 64.9613 50.4563 64.0178 51.7381 62.8072C53.0555 61.561 54.0347 60.0655 54.6756 58.3208C55.3165 56.5406 55.6369 54.5644 55.6369 52.3925C55.6369 50.3273 55.3165 48.458 54.6756 46.7846C54.0347 45.1111 53.0733 43.6869 51.7915 42.5119C50.5097 41.3369 48.8897 40.4467 46.9313 39.8415C44.973 39.2005 42.6586 38.8801 39.9882 38.8801H29.2531V66.5992H39.9882ZM39.9882 27.7711C45.151 27.7711 49.6196 28.3764 53.3938 29.587C57.168 30.7976 60.2835 32.4889 62.7403 34.6608C65.1971 36.8328 67.013 39.432 68.188 42.4585C69.3986 45.485 70.0039 48.7963 70.0039 52.3925C70.0039 56.1311 69.3808 59.567 68.1346 62.7003C66.8884 65.7981 65.0191 68.4685 62.5267 70.7116C60.0343 72.9548 56.9009 74.6995 53.1267 75.9457C49.3881 77.1919 45.0086 77.815 39.9882 77.815H29.2531V105H14.8861V27.7711H39.9882ZM113.694 81.607C109.884 81.785 106.679 82.1233 104.08 82.6218C101.481 83.0847 99.3981 83.6899 97.8314 84.4377C96.2648 85.1854 95.1432 86.0577 94.4667 87.0547C93.7902 88.0517 93.4519 89.1376 93.4519 90.3126C93.4519 92.627 94.1284 94.2827 95.4815 95.2796C96.8701 96.2766 98.6682 96.7751 100.876 96.7751C103.582 96.7751 105.914 96.2944 107.872 95.333C109.866 94.3361 111.807 92.8406 113.694 90.8467V81.607ZM83.4645 57.8402C89.7667 52.072 97.3508 49.188 106.217 49.188C109.421 49.188 112.287 49.722 114.815 50.7902C117.343 51.8228 119.48 53.2826 121.224 55.1697C122.969 57.0212 124.287 59.2466 125.177 61.8458C126.102 64.445 126.565 67.2935 126.565 70.3912V105H120.584C119.337 105 118.376 104.822 117.699 104.466C117.023 104.074 116.489 103.309 116.097 102.169L114.922 98.2171C113.534 99.4633 112.181 100.567 110.863 101.528C109.546 102.454 108.175 103.238 106.751 103.878C105.326 104.519 103.795 105 102.158 105.32C100.555 105.677 98.775 105.855 96.8167 105.855C94.5023 105.855 92.366 105.552 90.4076 104.947C88.4493 104.306 86.758 103.362 85.3338 102.116C83.9096 100.87 82.8058 99.3209 82.0225 97.4694C81.2392 95.6179 80.8475 93.4637 80.8475 91.0069C80.8475 89.6183 81.0789 88.2475 81.5418 86.8945C82.0047 85.5058 82.7524 84.1884 83.785 82.9422C84.8531 81.696 86.224 80.521 87.8974 79.4173C89.5709 78.3135 91.6182 77.3521 94.0394 76.5332C96.4962 75.7143 99.3447 75.0555 102.585 74.5571C105.825 74.023 109.528 73.7025 113.694 73.5957V70.3912C113.694 66.7238 112.91 64.0178 111.344 62.2731C109.777 60.4928 107.516 59.6026 104.561 59.6026C102.425 59.6026 100.644 59.8519 99.2201 60.3504C97.8314 60.8489 96.603 61.4185 95.5349 62.0594C94.4667 62.6647 93.4875 63.2166 92.5974 63.7151C91.7429 64.2136 90.7815 64.4628 89.7133 64.4628C88.7876 64.4628 88.0043 64.2314 87.3633 63.7685C86.7224 63.27 86.2062 62.7004 85.8145 62.0594L83.4645 57.8402ZM194.679 50.2027L164.823 120.061C164.432 120.987 163.915 121.681 163.275 122.144C162.669 122.643 161.726 122.892 160.444 122.892H150.617L160.871 100.888L138.707 50.2027H150.296C151.329 50.2027 152.13 50.452 152.7 50.9504C153.305 51.4489 153.75 52.0186 154.035 52.6595L165.678 81.0729C166.07 82.0343 166.39 82.9956 166.639 83.957C166.924 84.9183 167.191 85.8975 167.44 86.8945C167.761 85.8975 168.081 84.9183 168.402 83.957C168.722 82.96 169.078 81.9809 169.47 81.0195L180.472 52.6595C180.757 51.9474 181.22 51.3599 181.861 50.897C182.537 50.4342 183.285 50.2027 184.104 50.2027H194.679ZM221.153 59.7095C222.862 56.4337 224.891 53.8701 227.241 52.0186C229.591 50.1315 232.369 49.188 235.573 49.188C238.101 49.188 240.131 49.7399 241.662 50.8436L240.807 60.7242C240.629 61.3651 240.362 61.828 240.006 62.1129C239.686 62.3621 239.241 62.4867 238.671 62.4867C238.137 62.4867 237.336 62.3977 236.267 62.2197C235.235 62.0416 234.22 61.9526 233.223 61.9526C231.763 61.9526 230.464 62.1663 229.324 62.5935C228.185 63.0208 227.152 63.6439 226.227 64.4628C225.337 65.2462 224.535 66.2075 223.823 67.3469C223.147 68.4863 222.506 69.7859 221.901 71.2457V105H208.709V50.2027H216.453C217.806 50.2027 218.749 50.452 219.284 50.9504C219.818 51.4133 220.174 52.2679 220.352 53.5141L221.153 59.7095ZM278.717 49.3482C282.776 49.3482 286.461 50.0069 289.772 51.3243C293.119 52.6417 295.967 54.511 298.317 56.9322C300.703 59.3534 302.537 62.3087 303.819 65.7981C305.1 69.2874 305.741 73.1862 305.741 77.4945C305.741 81.8384 305.1 85.7551 303.819 89.2444C302.537 92.7338 300.703 95.7069 298.317 98.1637C295.967 100.62 293.119 102.508 289.772 103.825C286.461 105.142 282.776 105.801 278.717 105.801C274.622 105.801 270.901 105.142 267.554 103.825C264.207 102.508 261.341 100.62 258.955 98.1637C256.605 95.7069 254.772 92.7338 253.454 89.2444C252.172 85.7551 251.532 81.8384 251.532 77.4945C251.532 73.1862 252.172 69.2874 253.454 65.7981C254.772 62.3087 256.605 59.3534 258.955 56.9322C261.341 54.511 264.207 52.6417 267.554 51.3243C270.901 50.0069 274.622 49.3482 278.717 49.3482ZM278.717 95.6535C283.274 95.6535 286.639 94.1224 288.811 91.0603C291.018 87.9982 292.122 83.5119 292.122 77.6014C292.122 71.6908 291.018 67.1867 288.811 64.089C286.639 60.9913 283.274 59.4424 278.717 59.4424C274.088 59.4424 270.652 61.0091 268.409 64.1424C266.201 67.2401 265.097 71.7264 265.097 77.6014C265.097 83.4763 266.201 87.9626 268.409 91.0603C270.652 94.1224 274.088 95.6535 278.717 95.6535ZM336.635 25.6347V105H323.443V25.6347H336.635ZM370.608 25.6347V105H357.416V25.6347H370.608ZM149.121 194.599C151.756 194.599 154.053 194.279 156.011 193.638C157.969 192.961 159.589 192.018 160.871 190.807C162.189 189.561 163.168 188.066 163.809 186.321C164.45 184.541 164.77 182.564 164.77 180.392C164.77 178.327 164.45 176.458 163.809 174.785C163.168 173.111 162.206 171.687 160.925 170.512C159.643 169.337 158.023 168.447 156.064 167.841C154.106 167.201 151.792 166.88 149.121 166.88H138.386V194.599H149.121ZM149.121 155.771C154.284 155.771 158.753 156.376 162.527 157.587C166.301 158.798 169.417 160.489 171.873 162.661C174.33 164.833 176.146 167.432 177.321 170.458C178.532 173.485 179.137 176.796 179.137 180.392C179.137 184.131 178.514 187.567 177.268 190.7C176.021 193.798 174.152 196.468 171.66 198.712C169.167 200.955 166.034 202.699 162.26 203.946C158.521 205.192 154.142 205.815 149.121 205.815H138.386V233H124.019V155.771H149.121ZM222.827 209.607C219.017 209.785 215.813 210.123 213.213 210.622C210.614 211.085 208.531 211.69 206.964 212.438C205.398 213.185 204.276 214.058 203.6 215.055C202.923 216.052 202.585 217.138 202.585 218.313C202.585 220.627 203.262 222.283 204.615 223.28C206.003 224.277 207.801 224.775 210.009 224.775C212.715 224.775 215.047 224.294 217.005 223.333C218.999 222.336 220.94 220.841 222.827 218.847V209.607ZM192.598 185.84C198.9 180.072 206.484 177.188 215.35 177.188C218.554 177.188 221.42 177.722 223.948 178.79C226.476 179.823 228.613 181.283 230.357 183.17C232.102 185.021 233.42 187.247 234.31 189.846C235.235 192.445 235.698 195.293 235.698 198.391V233H229.717C228.47 233 227.509 232.822 226.833 232.466C226.156 232.074 225.622 231.309 225.23 230.169L224.055 226.217C222.667 227.463 221.314 228.567 219.996 229.528C218.679 230.454 217.308 231.238 215.884 231.878C214.46 232.519 212.928 233 211.291 233.32C209.688 233.677 207.908 233.855 205.95 233.855C203.635 233.855 201.499 233.552 199.541 232.947C197.582 232.306 195.891 231.362 194.467 230.116C193.043 228.87 191.939 227.321 191.156 225.469C190.372 223.618 189.981 221.464 189.981 219.007C189.981 217.618 190.212 216.247 190.675 214.894C191.138 213.506 191.885 212.188 192.918 210.942C193.986 209.696 195.357 208.521 197.03 207.417C198.704 206.313 200.751 205.352 203.172 204.533C205.629 203.714 208.478 203.056 211.718 202.557C214.958 202.023 218.661 201.703 222.827 201.596V198.391C222.827 194.724 222.044 192.018 220.477 190.273C218.91 188.493 216.649 187.603 213.694 187.603C211.558 187.603 209.777 187.852 208.353 188.35C206.964 188.849 205.736 189.419 204.668 190.059C203.6 190.665 202.621 191.217 201.73 191.715C200.876 192.214 199.915 192.463 198.846 192.463C197.921 192.463 197.137 192.231 196.496 191.769C195.856 191.27 195.339 190.7 194.948 190.059L192.598 185.84ZM268.952 153.635V233H255.76V153.635H268.952Z" fill="#27395E"/>
<rect x="13.3522" y="111.268" width="133.522" height="6.67608" fill="#FFBA5F"/>
<rect x="175.803" y="111.268" width="195.832" height="6.67608" fill="#FFBA5F"/>
<rect x="122.395" y="242.564" width="149.099" height="6.67608" fill="#FFBA5F"/>
</svg>
