<svg width="576" height="128" viewBox="0 0 576 128" fill="none" xmlns="http://www.w3.org/2000/svg">
<path d="M35.6829 66.5992C38.3178 66.5992 40.6143 66.2787 42.5727 65.6378C44.531 64.9613 46.151 64.0178 47.4328 62.8072C48.7503 61.561 49.7294 60.0655 50.3703 58.3208C51.0112 56.5406 51.3317 54.5644 51.3317 52.3925C51.3317 50.3273 51.0112 48.458 50.3703 46.7846C49.7294 45.1111 48.7681 43.6869 47.4863 42.5119C46.2044 41.3369 44.5844 40.4467 42.6261 39.8415C40.6678 39.2005 38.3534 38.8801 35.6829 38.8801H24.9478V66.5992H35.6829ZM35.6829 27.7711C40.8458 27.7711 45.3143 28.3764 49.0885 29.587C52.8627 30.7976 55.9782 32.4889 58.435 34.6608C60.8918 36.8328 62.7077 39.432 63.8827 42.4585C65.0933 45.485 65.6986 48.7963 65.6986 52.3925C65.6986 56.1311 65.0755 59.567 63.8293 62.7003C62.5831 65.7981 60.7138 68.4685 58.2214 70.7116C55.729 72.9548 52.5957 74.6995 48.8215 75.9457C45.0829 77.1919 40.7034 77.815 35.6829 77.815H24.9478V105H10.5809V27.7711H35.6829ZM109.389 81.607C105.579 81.785 102.374 82.1233 99.775 82.6218C97.1758 83.0847 95.0928 83.6899 93.5262 84.4377C91.9595 85.1854 90.8379 86.0577 90.1614 87.0547C89.4849 88.0517 89.1467 89.1376 89.1467 90.3126C89.1467 92.627 89.8232 94.2827 91.1762 95.2796C92.5648 96.2766 94.3629 96.7751 96.5705 96.7751C99.2765 96.7751 101.609 96.2944 103.567 95.333C105.561 94.3361 107.501 92.8406 109.389 90.8467V81.607ZM79.1592 57.8402C85.4615 52.072 93.0455 49.188 101.911 49.188C105.116 49.188 107.982 49.722 110.51 50.7902C113.038 51.8228 115.174 53.2826 116.919 55.1697C118.664 57.0212 119.981 59.2466 120.871 61.8458C121.797 64.445 122.26 67.2935 122.26 70.3912V105H116.278C115.032 105 114.071 104.822 113.394 104.466C112.718 104.074 112.184 103.309 111.792 102.169L110.617 98.2171C109.228 99.4633 107.875 100.567 106.558 101.528C105.24 102.454 103.87 103.238 102.445 103.878C101.021 104.519 99.4901 105 97.8523 105.32C96.25 105.677 94.4697 105.855 92.5114 105.855C90.197 105.855 88.0607 105.552 86.1024 104.947C84.1441 104.306 82.4528 103.362 81.0286 102.116C79.6043 100.87 78.5005 99.3209 77.7172 97.4694C76.9339 95.6179 76.5422 93.4637 76.5422 91.0069C76.5422 89.6183 76.7737 88.2475 77.2365 86.8945C77.6994 85.5058 78.4471 84.1884 79.4797 82.9422C80.5479 81.696 81.9187 80.521 83.5922 79.4173C85.2656 78.3135 87.313 77.3521 89.7342 76.5332C92.191 75.7143 95.0394 75.0555 98.2795 74.5571C101.52 74.023 105.223 73.7025 109.389 73.5957V70.3912C109.389 66.7238 108.605 64.0178 107.039 62.2731C105.472 60.4928 103.211 59.6026 100.256 59.6026C98.1193 59.6026 96.339 59.8519 94.9148 60.3504C93.5262 60.8489 92.2978 61.4185 91.2296 62.0594C90.1614 62.6647 89.1823 63.2166 88.2921 63.7151C87.4376 64.2136 86.4762 64.4628 85.4081 64.4628C84.4823 64.4628 83.699 64.2314 83.0581 63.7685C82.4172 63.27 81.9009 62.7004 81.5092 62.0594L79.1592 57.8402ZM190.374 50.2027L160.518 120.061C160.126 120.987 159.61 121.681 158.969 122.144C158.364 122.643 157.42 122.892 156.139 122.892H146.311L156.566 100.888L134.401 50.2027H145.991C147.024 50.2027 147.825 50.452 148.394 50.9504C149 51.4489 149.445 52.0186 149.73 52.6595L161.373 81.0729C161.764 82.0343 162.085 82.9956 162.334 83.957C162.619 84.9183 162.886 85.8975 163.135 86.8945C163.456 85.8975 163.776 84.9183 164.097 83.957C164.417 82.96 164.773 81.9809 165.165 81.0195L176.167 52.6595C176.452 51.9474 176.915 51.3599 177.555 50.897C178.232 50.4342 178.98 50.2027 179.799 50.2027H190.374ZM216.848 59.7095C218.557 56.4337 220.586 53.8701 222.936 52.0186C225.286 50.1315 228.063 49.188 231.268 49.188C233.796 49.188 235.825 49.7399 237.356 50.8436L236.502 60.7242C236.324 61.3651 236.057 61.828 235.701 62.1129C235.38 62.3621 234.935 62.4867 234.366 62.4867C233.832 62.4867 233.03 62.3977 231.962 62.2197C230.93 62.0416 229.915 61.9526 228.918 61.9526C227.458 61.9526 226.158 62.1663 225.019 62.5935C223.88 63.0208 222.847 63.6439 221.921 64.4628C221.031 65.2462 220.23 66.2075 219.518 67.3469C218.841 68.4863 218.201 69.7859 217.595 71.2457V105H204.403V50.2027H212.148C213.501 50.2027 214.444 50.452 214.978 50.9504C215.512 51.4133 215.868 52.2679 216.046 53.5141L216.848 59.7095ZM274.411 49.3482C278.47 49.3482 282.155 50.0069 285.467 51.3243C288.814 52.6417 291.662 54.511 294.012 56.9322C296.398 59.3534 298.231 62.3087 299.513 65.7981C300.795 69.2874 301.436 73.1862 301.436 77.4945C301.436 81.8384 300.795 85.7551 299.513 89.2444C298.231 92.7338 296.398 95.7069 294.012 98.1637C291.662 100.62 288.814 102.508 285.467 103.825C282.155 105.142 278.47 105.801 274.411 105.801C270.317 105.801 266.596 105.142 263.249 103.825C259.902 102.508 257.036 100.62 254.65 98.1637C252.3 95.7069 250.466 92.7338 249.149 89.2444C247.867 85.7551 247.226 81.8384 247.226 77.4945C247.226 73.1862 247.867 69.2874 249.149 65.7981C250.466 62.3087 252.3 59.3534 254.65 56.9322C257.036 54.511 259.902 52.6417 263.249 51.3243C266.596 50.0069 270.317 49.3482 274.411 49.3482ZM274.411 95.6535C278.969 95.6535 282.334 94.1224 284.505 91.0603C286.713 87.9982 287.817 83.5119 287.817 77.6014C287.817 71.6908 286.713 67.1867 284.505 64.089C282.334 60.9913 278.969 59.4424 274.411 59.4424C269.782 59.4424 266.347 61.0091 264.103 64.1424C261.896 67.2401 260.792 71.7264 260.792 77.6014C260.792 83.4763 261.896 87.9626 264.103 91.0603C266.347 94.1224 269.782 95.6535 274.411 95.6535ZM332.33 25.6347V105H319.138V25.6347H332.33ZM366.302 25.6347V105H353.111V25.6347H366.302ZM447.56 66.5992C450.194 66.5992 452.491 66.2787 454.449 65.6378C456.408 64.9613 458.028 64.0178 459.309 62.8072C460.627 61.561 461.606 60.0655 462.247 58.3208C462.888 56.5406 463.208 54.5644 463.208 52.3925C463.208 50.3273 462.888 48.458 462.247 46.7846C461.606 45.1111 460.645 43.6869 459.363 42.5119C458.081 41.3369 456.461 40.4467 454.503 39.8415C452.544 39.2005 450.23 38.8801 447.56 38.8801H436.824V66.5992H447.56ZM447.56 27.7711C452.722 27.7711 457.191 28.3764 460.965 29.587C464.739 30.7976 467.855 32.4889 470.312 34.6608C472.768 36.8328 474.584 39.432 475.759 42.4585C476.97 45.485 477.575 48.7963 477.575 52.3925C477.575 56.1311 476.952 59.567 475.706 62.7003C474.46 65.7981 472.59 68.4685 470.098 70.7116C467.606 72.9548 464.472 74.6995 460.698 75.9457C456.959 77.1919 452.58 77.815 447.56 77.815H436.824V105H422.457V27.7711H447.56ZM521.265 81.607C517.455 81.785 514.251 82.1233 511.652 82.6218C509.052 83.0847 506.969 83.6899 505.403 84.4377C503.836 85.1854 502.715 86.0577 502.038 87.0547C501.362 88.0517 501.023 89.1376 501.023 90.3126C501.023 92.627 501.7 94.2827 503.053 95.2796C504.441 96.2766 506.24 96.7751 508.447 96.7751C511.153 96.7751 513.485 96.2944 515.444 95.333C517.438 94.3361 519.378 92.8406 521.265 90.8467V81.607ZM491.036 57.8402C497.338 52.072 504.922 49.188 513.788 49.188C516.992 49.188 519.859 49.722 522.387 50.7902C524.915 51.8228 527.051 53.2826 528.796 55.1697C530.54 57.0212 531.858 59.2466 532.748 61.8458C533.674 64.445 534.137 67.2935 534.137 70.3912V105H528.155C526.909 105 525.947 104.822 525.271 104.466C524.594 104.074 524.06 103.309 523.669 102.169L522.494 98.2171C521.105 99.4633 519.752 100.567 518.435 101.528C517.117 102.454 515.746 103.238 514.322 103.878C512.898 104.519 511.367 105 509.729 105.32C508.127 105.677 506.346 105.855 504.388 105.855C502.074 105.855 499.937 105.552 497.979 104.947C496.021 104.306 494.329 103.362 492.905 102.116C491.481 100.87 490.377 99.3209 489.594 97.4694C488.811 95.6179 488.419 93.4637 488.419 91.0069C488.419 89.6183 488.65 88.2475 489.113 86.8945C489.576 85.5058 490.324 84.1884 491.356 82.9422C492.424 81.696 493.795 80.521 495.469 79.4173C497.142 78.3135 499.19 77.3521 501.611 76.5332C504.068 75.7143 506.916 75.0555 510.156 74.5571C513.396 74.023 517.099 73.7025 521.265 73.5957V70.3912C521.265 66.7238 520.482 64.0178 518.915 62.2731C517.349 60.4928 515.088 59.6026 512.132 59.6026C509.996 59.6026 508.216 59.8519 506.791 60.3504C505.403 60.8489 504.174 61.4185 503.106 62.0594C502.038 62.6647 501.059 63.2166 500.169 63.7151C499.314 64.2136 498.353 64.4628 497.285 64.4628C496.359 64.4628 495.576 64.2314 494.935 63.7685C494.294 63.27 493.778 62.7004 493.386 62.0594L491.036 57.8402ZM567.39 25.6347V105H554.198V25.6347H567.39Z" fill="#27395E"/>
<rect x="10" y="111" width="133.522" height="3.98" fill="#FFBA5F"/>
<rect x="171" y="111" width="398" height="4.12" fill="#FFBA5F"/>
</svg>
